<svg xmlns="http://www.w3.org/2000/svg" width="26.182" height="24" viewBox="0 0 26.182 24">
  <g id="Icon_ICON_feather_twitter_SIZE_LARGE_STYLE_STYLE1_" data-name="Icon [ICON=feather/twitter][SIZE=LARGE][STYLE=STYLE1]" transform="translate(1.067)">
    <rect id="Area_ICON:feather_twitter_SIZE:LARGE_STYLE:STYLE1_" data-name="Area [ICON:feather/twitter][SIZE:LARGE][STYLE:STYLE1]" width="24" height="24" transform="translate(0.023)" fill="#fcfcfc" opacity="0"/>
    <g id="Icon" transform="translate(1 2.99)">
      <path id="_252cc7fa-7a85-4610-a546-b5fb8f83c694" data-name="252cc7fa-7a85-4610-a546-b5fb8f83c694" d="M25.091,3.273a11.894,11.894,0,0,1-3.426,1.669,4.887,4.887,0,0,0-8.574,3.273v1.09A11.629,11.629,0,0,1,3.273,4.364s-4.364,9.818,5.454,14.181a12.689,12.689,0,0,1-7.636,2.182c9.818,5.455,21.818,0,21.818-12.545a4.922,4.922,0,0,0-.087-.906A8.424,8.424,0,0,0,25.091,3.273Z" transform="translate(-2.067 -4.039)" fill="none" stroke="#fff" stroke-linecap="round" stroke-linejoin="round" stroke-width="2.182"/>
    </g>
  </g>
</svg>